<?xml version="1.0" encoding="utf-8"?>
<!-- Generator: Adobe Illustrator 24.3.0, SVG Export Plug-In . SVG Version: 6.00 Build 0)  -->
<svg version="1.1" id="Capa_1" xmlns="http://www.w3.org/2000/svg" xmlns:xlink="http://www.w3.org/1999/xlink" x="0px" y="0px"
	 viewBox="0 0 24 24" style="enable-background:new 0 0 24 24;" xml:space="preserve">
<style type="text/css">
	.st0{fill:#4C6500;}
	.st1{fill:#FFFFFF;}
	.st2{fill:#ACC35F;}
</style>
<g id="Grupo_58_1_">
	<circle id="Elipse_5_1_" class="st0" cx="12" cy="12.1" r="12"/>
	<g id="Icon_ionic-ios-mail_1_" transform="translate(5.853 7.651)">
		<path id="Trazado_14_1_" class="st1" d="M12.4,1.16L9.17,4.46c-0.02,0.02-0.02,0.06,0,0.08c0,0,0,0,0,0l2.26,2.41
			c0.15,0.15,0.15,0.4,0,0.55c0,0,0,0,0,0c-0.15,0.15-0.4,0.15-0.55,0L8.62,5.1c-0.02-0.02-0.06-0.02-0.09,0L7.99,5.66
			C7.53,6.12,6.91,6.39,6.26,6.39c-0.66,0-1.3-0.27-1.76-0.75L3.97,5.1c-0.02-0.02-0.06-0.02-0.09,0L1.63,7.5
			c-0.15,0.15-0.4,0.15-0.55,0c-0.15-0.15-0.15-0.4,0-0.55c0,0,0,0,0,0l2.26-2.41c0.02-0.02,0.02-0.06,0-0.08L0.1,1.16
			c-0.02-0.02-0.06-0.02-0.08,0C0.01,1.17,0,1.19,0,1.2V7.8c0,0.53,0.43,0.96,0.96,0.96h10.58c0.53,0,0.96-0.43,0.96-0.96V1.2
			c0-0.03-0.03-0.06-0.06-0.06C12.43,1.15,12.41,1.15,12.4,1.16z"/>
		<path id="Trazado_15_1_" class="st1" d="M6.25,5.6c0.44,0,0.87-0.18,1.18-0.49l4.71-4.8c-0.17-0.14-0.38-0.21-0.6-0.21H0.96
			c-0.22,0-0.43,0.07-0.6,0.21l4.72,4.8C5.38,5.43,5.81,5.61,6.25,5.6z"/>
	</g>
</g>
</svg>
