<?xml version="1.0" encoding="utf-8"?>
<!-- Generator: Adobe Illustrator 24.3.0, SVG Export Plug-In . SVG Version: 6.00 Build 0)  -->
<svg version="1.1" id="Capa_1" xmlns="http://www.w3.org/2000/svg" xmlns:xlink="http://www.w3.org/1999/xlink" x="0px" y="0px"
	 viewBox="0 0 24 24" style="enable-background:new 0 0 24 24;" xml:space="preserve">
<style type="text/css">
	.st0{fill:#4C6500;}
	.st1{fill:#FFFFFF;}
	.st2{fill:#ACC35F;}
</style>
<g id="Grupo_55_1_" transform="translate(-1347 -4101)">
	<circle id="Elipse_3_1_" class="st0" cx="1359" cy="4113" r="12"/>
	<path id="Icon_awesome-instagram_1_" class="st1" d="M1358.91,4109.97c-1.62,0-2.94,1.32-2.94,2.94c0,1.62,1.32,2.94,2.94,2.94
		c1.62,0,2.94-1.31,2.94-2.94c0-1.62-1.31-2.94-2.93-2.94C1358.92,4109.97,1358.92,4109.97,1358.91,4109.97z M1358.91,4114.82
		c-1.05,0-1.91-0.85-1.91-1.91c0-1.05,0.86-1.91,1.91-1.91c1.05,0,1.91,0.85,1.91,1.91l0,0
		C1360.82,4113.96,1359.97,4114.82,1358.91,4114.82z M1362.66,4109.85c0,0.38-0.31,0.69-0.68,0.69s-0.69-0.31-0.69-0.69
		c0-0.38,0.31-0.69,0.69-0.69C1362.35,4109.17,1362.66,4109.47,1362.66,4109.85C1362.66,4109.85,1362.66,4109.85,1362.66,4109.85z
		 M1364.6,4110.55c0.02-0.89-0.31-1.75-0.93-2.4c-0.65-0.61-1.51-0.94-2.4-0.93c-0.95-0.05-3.78-0.05-4.73,0
		c-0.89-0.02-1.75,0.31-2.4,0.92c-0.61,0.65-0.94,1.51-0.93,2.39c-0.05,0.95-0.05,3.78,0,4.73c-0.02,0.89,0.31,1.75,0.93,2.4
		c0.65,0.61,1.51,0.94,2.4,0.93c0.95,0.05,3.78,0.05,4.73,0c0.89,0.02,1.75-0.31,2.4-0.93c0.61-0.65,0.94-1.51,0.93-2.4
		C1364.66,4114.33,1364.66,4111.49,1364.6,4110.55L1364.6,4110.55z M1363.38,4116.29c-0.2,0.5-0.59,0.89-1.09,1.08
		c-1.11,0.23-2.25,0.31-3.38,0.23c-1.13,0.07-2.27,0-3.38-0.23c-0.5-0.2-0.89-0.59-1.08-1.09c-0.23-1.11-0.31-2.25-0.23-3.38
		c-0.07-1.13,0-2.27,0.23-3.38c0.2-0.5,0.59-0.89,1.09-1.09c1.11-0.23,2.25-0.31,3.38-0.23c1.13-0.07,2.26,0,3.37,0.23
		c0.5,0.2,0.89,0.59,1.09,1.09c0.23,1.11,0.31,2.25,0.23,3.38C1363.68,4114.04,1363.61,4115.18,1363.38,4116.29L1363.38,4116.29z"/>
</g>
</svg>
