<?xml version="1.0" encoding="utf-8"?>
<!-- Generator: Adobe Illustrator 24.3.0, SVG Export Plug-In . SVG Version: 6.00 Build 0)  -->
<svg version="1.1" id="Capa_1" xmlns="http://www.w3.org/2000/svg" xmlns:xlink="http://www.w3.org/1999/xlink" x="0px" y="0px"
	 viewBox="0 0 24 24" style="enable-background:new 0 0 24 24;" xml:space="preserve">
<style type="text/css">
	.st0{fill:#4C6500;}
	.st1{fill:#FFFFFF;}
	.st2{fill:#ACC35F;}
</style>
<g id="Grupo_59_1_">
	<g id="Grupo_56_1_" transform="translate(11329 -3446)">
		<circle id="Elipse_4_1_" class="st0" cx="-11317" cy="3458.1" r="12"/>
		<path id="Icon_awesome-whatsapp_1_" class="st1" d="M-11312.43,3453.38c-2.41-2.41-6.32-2.4-8.73,0.01
			c-1.97,1.97-2.37,5.02-0.98,7.44l-0.88,3.19l3.27-0.86c0.9,0.49,1.92,0.75,2.95,0.75l0,0c3.42,0,6.2-2.75,6.23-6.17
			C-11310.59,3456.1-11311.26,3454.53-11312.43,3453.38z M-11316.8,3462.88c-0.92,0-1.82-0.25-2.61-0.71l-0.19-0.11l-1.94,0.51
			l0.51-1.9l-0.12-0.2c-1.47-2.43-0.7-5.59,1.73-7.06c2.43-1.47,5.59-0.7,7.06,1.73c0.48,0.79,0.74,1.69,0.75,2.61
			C-11311.64,3460.59-11313.95,3462.88-11316.8,3462.88L-11316.8,3462.88z M-11313.98,3459.04c-0.15-0.08-0.91-0.45-1.05-0.5
			c-0.14-0.05-0.25-0.08-0.35,0.08c-0.1,0.16-0.4,0.5-0.49,0.61c-0.09,0.11-0.18,0.12-0.33,0.04c-0.89-0.36-1.63-1-2.1-1.84
			c-0.16-0.27,0.16-0.25,0.45-0.84c0.04-0.09,0.04-0.19-0.01-0.27c-0.04-0.08-0.35-0.84-0.48-1.15c-0.13-0.31-0.25-0.26-0.35-0.26
			c-0.09-0.01-0.19-0.01-0.29-0.01c-0.16,0-0.31,0.07-0.41,0.19c-0.35,0.33-0.55,0.8-0.54,1.29c0.05,0.58,0.27,1.14,0.63,1.6
			c0.66,0.99,1.57,1.79,2.63,2.33c0.56,0.32,1.21,0.46,1.85,0.39c0.43-0.09,0.81-0.35,1.04-0.73c0.1-0.23,0.13-0.49,0.09-0.73
			C-11313.73,3459.15-11313.83,3459.11-11313.98,3459.04z"/>
	</g>
</g>
</svg>
